<svg width="319" height="56" viewBox="0 0 319 56" fill="none" xmlns="http://www.w3.org/2000/svg">
<path d="M34 44.78C33.42 44.78 32.88 44.66 32.48 44.48C31.06 43.74 30.06 42.72 29.06 39.72C28.04 36.6 26.12 35.14 24.28 33.72C22.7 32.5 21.06 31.24 19.64 28.66C18.58 26.74 18 24.64 18 22.78C18 17.18 22.4 12.78 28 12.78C33.6 12.78 38 17.18 38 22.78H42C42 14.92 35.86 8.77997 28 8.77997C20.14 8.77997 14 14.92 14 22.78C14 25.3 14.76 28.08 16.14 30.58C17.96 33.88 20.1 35.54 21.84 36.88C23.46 38.12 24.62 39.02 25.26 40.98C26.46 44.62 28 46.66 30.72 48.08C31.74 48.54 32.86 48.78 34 48.78C38.42 48.78 42 45.2 42 40.78H38C38 42.98 36.2 44.78 34 44.78ZM15.28 10.06L12.44 7.21997C8.46 11.2 6 16.7 6 22.78C6 28.86 8.46 34.36 12.44 38.34L15.26 35.52C12.02 32.26 10 27.76 10 22.78C10 17.8 12.02 13.3 15.28 10.06ZM23 22.78C23 25.54 25.24 27.78 28 27.78C30.76 27.78 33 25.54 33 22.78C33 20.02 30.76 17.78 28 17.78C25.24 17.78 23 20.02 23 22.78Z" fill="#008545"/>
<path d="M70 44.78C70.58 44.78 71.12 44.66 71.52 44.48C72.94 43.74 73.94 42.72 74.94 39.72C75.96 36.6 77.88 35.14 79.72 33.72C81.3 32.5 82.94 31.24 84.36 28.66C85.42 26.74 86 24.64 86 22.78C86 17.18 81.6 12.78 76 12.78C70.4 12.78 66 17.18 66 22.78H62C62 14.92 68.14 8.77997 76 8.77997C83.86 8.77997 90 14.92 90 22.78C90 25.3 89.24 28.08 87.86 30.58C86.04 33.88 83.9 35.54 82.16 36.88C80.54 38.12 79.38 39.02 78.74 40.98C77.54 44.62 76 46.66 73.28 48.08C72.26 48.54 71.14 48.78 70 48.78C65.58 48.78 62 45.2 62 40.78H66C66 42.98 67.8 44.78 70 44.78ZM88.72 10.06L91.56 7.21997C95.54 11.2 98 16.7 98 22.78C98 28.86 95.54 34.36 91.56 38.34L88.74 35.52C91.98 32.26 94 27.76 94 22.78C94 17.8 91.98 13.3 88.72 10.06ZM81 22.78C81 25.54 78.76 27.78 76 27.78C73.24 27.78 71 25.54 71 22.78C71 20.02 73.24 17.78 76 17.78C78.76 17.78 81 20.02 81 22.78Z" fill="#008545"/>
<path d="M128.406 29.0234H119.641L119.594 24.1953H126.953C128.25 24.1953 129.312 24.0312 130.141 23.7031C130.969 23.3594 131.586 22.8672 131.992 22.2266C132.414 21.5703 132.625 20.7734 132.625 19.8359C132.625 18.7734 132.422 17.9141 132.016 17.2578C131.625 16.6016 131.008 16.125 130.164 15.8281C129.336 15.5312 128.266 15.3828 126.953 15.3828H122.078V44H115.047V9.875H126.953C128.938 9.875 130.711 10.0625 132.273 10.4375C133.852 10.8125 135.188 11.3828 136.281 12.1484C137.375 12.9141 138.211 13.8828 138.789 15.0547C139.367 16.2109 139.656 17.5859 139.656 19.1797C139.656 20.5859 139.336 21.8828 138.695 23.0703C138.07 24.2578 137.078 25.2266 135.719 25.9766C134.375 26.7266 132.617 27.1406 130.445 27.2188L128.406 29.0234ZM128.102 44H117.719L120.461 38.5156H128.102C129.336 38.5156 130.344 38.3203 131.125 37.9297C131.906 37.5234 132.484 36.9766 132.859 36.2891C133.234 35.6016 133.422 34.8125 133.422 33.9219C133.422 32.9219 133.25 32.0547 132.906 31.3203C132.578 30.5859 132.047 30.0234 131.312 29.6328C130.578 29.2266 129.609 29.0234 128.406 29.0234H121.633L121.68 24.1953H130.117L131.734 26.0938C133.812 26.0625 135.484 26.4297 136.75 27.1953C138.031 27.9453 138.961 28.9219 139.539 30.125C140.133 31.3281 140.43 32.6172 140.43 33.9922C140.43 36.1797 139.953 38.0234 139 39.5234C138.047 41.0078 136.648 42.125 134.805 42.875C132.977 43.625 130.742 44 128.102 44ZM144.203 31.5781V31.0859C144.203 29.2266 144.469 27.5156 145 25.9531C145.531 24.375 146.305 23.0078 147.32 21.8516C148.336 20.6953 149.586 19.7969 151.07 19.1562C152.555 18.5 154.258 18.1719 156.18 18.1719C158.102 18.1719 159.812 18.5 161.312 19.1562C162.812 19.7969 164.07 20.6953 165.086 21.8516C166.117 23.0078 166.898 24.375 167.43 25.9531C167.961 27.5156 168.227 29.2266 168.227 31.0859V31.5781C168.227 33.4219 167.961 35.1328 167.43 36.7109C166.898 38.2734 166.117 39.6406 165.086 40.8125C164.07 41.9688 162.82 42.8672 161.336 43.5078C159.852 44.1484 158.148 44.4688 156.227 44.4688C154.305 44.4688 152.594 44.1484 151.094 43.5078C149.609 42.8672 148.352 41.9688 147.32 40.8125C146.305 39.6406 145.531 38.2734 145 36.7109C144.469 35.1328 144.203 33.4219 144.203 31.5781ZM150.953 31.0859V31.5781C150.953 32.6406 151.047 33.6328 151.234 34.5547C151.422 35.4766 151.719 36.2891 152.125 36.9922C152.547 37.6797 153.094 38.2188 153.766 38.6094C154.438 39 155.258 39.1953 156.227 39.1953C157.164 39.1953 157.969 39 158.641 38.6094C159.312 38.2188 159.852 37.6797 160.258 36.9922C160.664 36.2891 160.961 35.4766 161.148 34.5547C161.352 33.6328 161.453 32.6406 161.453 31.5781V31.0859C161.453 30.0547 161.352 29.0859 161.148 28.1797C160.961 27.2578 160.656 26.4453 160.234 25.7422C159.828 25.0234 159.289 24.4609 158.617 24.0547C157.945 23.6484 157.133 23.4453 156.18 23.4453C155.227 23.4453 154.414 23.6484 153.742 24.0547C153.086 24.4609 152.547 25.0234 152.125 25.7422C151.719 26.4453 151.422 27.2578 151.234 28.1797C151.047 29.0859 150.953 30.0547 150.953 31.0859ZM184.797 18.6406V23.4219H170.031V18.6406H184.797ZM173.688 12.3828H180.438V36.3594C180.438 37.0938 180.531 37.6562 180.719 38.0469C180.922 38.4375 181.219 38.7109 181.609 38.8672C182 39.0078 182.492 39.0781 183.086 39.0781C183.508 39.0781 183.883 39.0625 184.211 39.0312C184.555 38.9844 184.844 38.9375 185.078 38.8906L185.102 43.8594C184.523 44.0469 183.898 44.1953 183.227 44.3047C182.555 44.4141 181.812 44.4688 181 44.4688C179.516 44.4688 178.219 44.2266 177.109 43.7422C176.016 43.2422 175.172 42.4453 174.578 41.3516C173.984 40.2578 173.688 38.8203 173.688 37.0391V12.3828ZM195.227 8V44H188.477V8H195.227ZM194.266 30.4297H192.414C192.43 28.6641 192.664 27.0391 193.117 25.5547C193.57 24.0547 194.219 22.7578 195.062 21.6641C195.906 20.5547 196.914 19.6953 198.086 19.0859C199.273 18.4766 200.586 18.1719 202.023 18.1719C203.273 18.1719 204.406 18.3516 205.422 18.7109C206.453 19.0547 207.336 19.6172 208.07 20.3984C208.82 21.1641 209.398 22.1719 209.805 23.4219C210.211 24.6719 210.414 26.1875 210.414 27.9688V44H203.617V27.9219C203.617 26.7969 203.453 25.9141 203.125 25.2734C202.812 24.6172 202.352 24.1562 201.742 23.8906C201.148 23.6094 200.414 23.4688 199.539 23.4688C198.57 23.4688 197.742 23.6484 197.055 24.0078C196.383 24.3672 195.844 24.8672 195.438 25.5078C195.031 26.1328 194.734 26.8672 194.547 27.7109C194.359 28.5547 194.266 29.4609 194.266 30.4297ZM239.172 44.4688C237.203 44.4688 235.438 44.1562 233.875 43.5312C232.312 42.8906 230.984 42.0078 229.891 40.8828C228.812 39.7578 227.984 38.4531 227.406 36.9688C226.828 35.4688 226.539 33.875 226.539 32.1875V31.25C226.539 29.3281 226.812 27.5703 227.359 25.9766C227.906 24.3828 228.688 23 229.703 21.8281C230.734 20.6562 231.984 19.7578 233.453 19.1328C234.922 18.4922 236.578 18.1719 238.422 18.1719C240.219 18.1719 241.812 18.4688 243.203 19.0625C244.594 19.6562 245.758 20.5 246.695 21.5938C247.648 22.6875 248.367 24 248.852 25.5312C249.336 27.0469 249.578 28.7344 249.578 30.5938V33.4062H229.422V28.9062H242.945V28.3906C242.945 27.4531 242.773 26.6172 242.43 25.8828C242.102 25.1328 241.602 24.5391 240.93 24.1016C240.258 23.6641 239.398 23.4453 238.352 23.4453C237.461 23.4453 236.695 23.6406 236.055 24.0312C235.414 24.4219 234.891 24.9688 234.484 25.6719C234.094 26.375 233.797 27.2031 233.594 28.1562C233.406 29.0938 233.312 30.125 233.312 31.25V32.1875C233.312 33.2031 233.453 34.1406 233.734 35C234.031 35.8594 234.445 36.6016 234.977 37.2266C235.523 37.8516 236.18 38.3359 236.945 38.6797C237.727 39.0234 238.609 39.1953 239.594 39.1953C240.812 39.1953 241.945 38.9609 242.992 38.4922C244.055 38.0078 244.969 37.2812 245.734 36.3125L249.016 39.875C248.484 40.6406 247.758 41.375 246.836 42.0781C245.93 42.7812 244.836 43.3594 243.555 43.8125C242.273 44.25 240.812 44.4688 239.172 44.4688ZM267.109 38.2812V26.9844C267.109 26.1719 266.977 25.4766 266.711 24.8984C266.445 24.3047 266.031 23.8438 265.469 23.5156C264.922 23.1875 264.211 23.0234 263.336 23.0234C262.586 23.0234 261.938 23.1562 261.391 23.4219C260.844 23.6719 260.422 24.0391 260.125 24.5234C259.828 24.9922 259.68 25.5469 259.68 26.1875H252.93C252.93 25.1094 253.18 24.0859 253.68 23.1172C254.18 22.1484 254.906 21.2969 255.859 20.5625C256.812 19.8125 257.945 19.2266 259.258 18.8047C260.586 18.3828 262.07 18.1719 263.711 18.1719C265.68 18.1719 267.43 18.5 268.961 19.1562C270.492 19.8125 271.695 20.7969 272.57 22.1094C273.461 23.4219 273.906 25.0625 273.906 27.0312V37.8828C273.906 39.2734 273.992 40.4141 274.164 41.3047C274.336 42.1797 274.586 42.9453 274.914 43.6016V44H268.094C267.766 43.3125 267.516 42.4531 267.344 41.4219C267.188 40.375 267.109 39.3281 267.109 38.2812ZM268 28.5547L268.047 32.375H264.273C263.383 32.375 262.609 32.4766 261.953 32.6797C261.297 32.8828 260.758 33.1719 260.336 33.5469C259.914 33.9062 259.602 34.3281 259.398 34.8125C259.211 35.2969 259.117 35.8281 259.117 36.4062C259.117 36.9844 259.25 37.5078 259.516 37.9766C259.781 38.4297 260.164 38.7891 260.664 39.0547C261.164 39.3047 261.75 39.4297 262.422 39.4297C263.438 39.4297 264.32 39.2266 265.07 38.8203C265.82 38.4141 266.398 37.9141 266.805 37.3203C267.227 36.7266 267.445 36.1641 267.461 35.6328L269.242 38.4922C268.992 39.1328 268.648 39.7969 268.211 40.4844C267.789 41.1719 267.25 41.8203 266.594 42.4297C265.938 43.0234 265.148 43.5156 264.227 43.9062C263.305 44.2812 262.211 44.4688 260.945 44.4688C259.336 44.4688 257.875 44.1484 256.562 43.5078C255.266 42.8516 254.234 41.9531 253.469 40.8125C252.719 39.6562 252.344 38.3438 252.344 36.875C252.344 35.5469 252.594 34.3672 253.094 33.3359C253.594 32.3047 254.328 31.4375 255.297 30.7344C256.281 30.0156 257.508 29.4766 258.977 29.1172C260.445 28.7422 262.148 28.5547 264.086 28.5547H268ZM285.859 24.1719V44H279.109V18.6406H285.461L285.859 24.1719ZM293.5 18.4766L293.383 24.7344C293.055 24.6875 292.656 24.6484 292.188 24.6172C291.734 24.5703 291.32 24.5469 290.945 24.5469C289.992 24.5469 289.164 24.6719 288.461 24.9219C287.773 25.1562 287.195 25.5078 286.727 25.9766C286.273 26.4453 285.93 27.0156 285.695 27.6875C285.477 28.3594 285.352 29.125 285.32 29.9844L283.961 29.5625C283.961 27.9219 284.125 26.4141 284.453 25.0391C284.781 23.6484 285.258 22.4375 285.883 21.4062C286.523 20.375 287.305 19.5781 288.227 19.0156C289.148 18.4531 290.203 18.1719 291.391 18.1719C291.766 18.1719 292.148 18.2031 292.539 18.2656C292.93 18.3125 293.25 18.3828 293.5 18.4766ZM310.398 36.9922C310.398 36.5078 310.258 36.0703 309.977 35.6797C309.695 35.2891 309.172 34.9297 308.406 34.6016C307.656 34.2578 306.57 33.9453 305.148 33.6641C303.867 33.3828 302.672 33.0312 301.562 32.6094C300.469 32.1719 299.516 31.6484 298.703 31.0391C297.906 30.4297 297.281 29.7109 296.828 28.8828C296.375 28.0391 296.148 27.0781 296.148 26C296.148 24.9375 296.375 23.9375 296.828 23C297.297 22.0625 297.961 21.2344 298.82 20.5156C299.695 19.7812 300.758 19.2109 302.008 18.8047C303.273 18.3828 304.695 18.1719 306.273 18.1719C308.477 18.1719 310.367 18.5234 311.945 19.2266C313.539 19.9297 314.758 20.8984 315.602 22.1328C316.461 23.3516 316.891 24.7422 316.891 26.3047H310.141C310.141 25.6484 310 25.0625 309.719 24.5469C309.453 24.0156 309.031 23.6016 308.453 23.3047C307.891 22.9922 307.156 22.8359 306.25 22.8359C305.5 22.8359 304.852 22.9688 304.305 23.2344C303.758 23.4844 303.336 23.8281 303.039 24.2656C302.758 24.6875 302.617 25.1562 302.617 25.6719C302.617 26.0625 302.695 26.4141 302.852 26.7266C303.023 27.0234 303.297 27.2969 303.672 27.5469C304.047 27.7969 304.531 28.0312 305.125 28.25C305.734 28.4531 306.484 28.6406 307.375 28.8125C309.203 29.1875 310.836 29.6797 312.273 30.2891C313.711 30.8828 314.852 31.6953 315.695 32.7266C316.539 33.7422 316.961 35.0781 316.961 36.7344C316.961 37.8594 316.711 38.8906 316.211 39.8281C315.711 40.7656 314.992 41.5859 314.055 42.2891C313.117 42.9766 311.992 43.5156 310.68 43.9062C309.383 44.2812 307.922 44.4688 306.297 44.4688C303.938 44.4688 301.938 44.0469 300.297 43.2031C298.672 42.3594 297.438 41.2891 296.594 39.9922C295.766 38.6797 295.352 37.3359 295.352 35.9609H301.75C301.781 36.8828 302.016 37.625 302.453 38.1875C302.906 38.75 303.477 39.1562 304.164 39.4062C304.867 39.6562 305.625 39.7812 306.438 39.7812C307.312 39.7812 308.039 39.6641 308.617 39.4297C309.195 39.1797 309.633 38.8516 309.93 38.4453C310.242 38.0234 310.398 37.5391 310.398 36.9922Z" fill="#008545"/>
</svg>
