<svg width="48" height="48" viewBox="0 0 48 48" fill="none" xmlns="http://www.w3.org/2000/svg">
<path d="M34 40.78C33.42 40.78 32.88 40.66 32.48 40.48C31.06 39.74 30.06 38.72 29.06 35.72C28.04 32.6 26.12 31.14 24.28 29.72C22.7 28.5 21.06 27.24 19.64 24.66C18.58 22.74 18 20.64 18 18.78C18 13.18 22.4 8.77997 28 8.77997C33.6 8.77997 38 13.18 38 18.78H42C42 10.92 35.86 4.77997 28 4.77997C20.14 4.77997 14 10.92 14 18.78C14 21.3 14.76 24.08 16.14 26.58C17.96 29.88 20.1 31.54 21.84 32.88C23.46 34.12 24.62 35.02 25.26 36.98C26.46 40.62 28 42.66 30.72 44.08C31.74 44.54 32.86 44.78 34 44.78C38.42 44.78 42 41.2 42 36.78H38C38 38.98 36.2 40.78 34 40.78ZM15.28 6.05997L12.44 3.21997C8.46 7.19997 6 12.7 6 18.78C6 24.86 8.46 30.36 12.44 34.34L15.26 31.52C12.02 28.26 10 23.76 10 18.78C10 13.8 12.02 9.29997 15.28 6.05997ZM23 18.78C23 21.54 25.24 23.78 28 23.78C30.76 23.78 33 21.54 33 18.78C33 16.02 30.76 13.78 28 13.78C25.24 13.78 23 16.02 23 18.78Z" fill="#008545"/>
</svg>
