<svg width="262" height="405" viewBox="0 0 262 405" fill="none" xmlns="http://www.w3.org/2000/svg">
<path fill-rule="evenodd" clip-rule="evenodd" d="M19.6912 192.321C18.5866 192.321 17.6912 193.206 17.6912 194.297L17.6912 241.399C17.6912 242.49 16.7957 243.375 15.6912 243.375L14.0361 243.375C12.9315 243.375 12.0361 242.49 12.0361 241.399L12.0361 194.297C12.0361 193.206 11.1407 192.321 10.0361 192.321L2.00298 192.321C0.46338 192.321 -0.498872 190.674 0.270928 189.357L13.1316 167.348C13.9014 166.031 15.8259 166.031 16.5957 167.348L29.4564 189.357C30.2262 190.674 29.2639 192.321 27.7243 192.321L19.6912 192.321Z" fill="#008545"/>
<path fill-rule="evenodd" clip-rule="evenodd" d="M235.346 331.359C236.451 331.359 237.346 330.475 237.346 329.383V282.281C237.346 281.19 238.242 280.305 239.346 280.305H241.001C242.106 280.305 243.001 281.19 243.001 282.281V329.383C243.001 330.475 243.897 331.359 245.001 331.359H253.034C254.574 331.359 255.536 333.006 254.766 334.323L241.906 356.332C241.136 357.649 239.211 357.649 238.442 356.332L225.581 334.323C224.811 333.006 225.773 331.359 227.313 331.359H235.346Z" fill="#008545"/>
<path d="M174.306 104.019C199.871 74.6242 197.039 81.845 197.039 81.845C197.039 81.845 174.201 106.02 169.32 111.966C163.218 119.397 154.178 135.141 144.457 152.226C148.492 139.264 145.592 127.054 143.637 122.569C147.16 125.943 149.066 139.717 149.066 139.717C149.066 139.717 162.67 117.398 174.306 104.019Z" fill="#008545"/>
<path fill-rule="evenodd" clip-rule="evenodd" d="M197.239 81.921C197.238 81.9212 197.238 81.9214 197.039 81.845C197.195 81.9892 197.195 81.9893 197.195 81.9895L197.194 81.9903L196.938 82.2621C196.769 82.4406 196.522 82.7032 196.205 83.0395C195.571 83.7121 194.66 84.6796 193.551 85.8591C191.334 88.2183 188.327 91.4258 185.167 94.819C178.845 101.608 171.921 109.133 169.486 112.099C163.399 119.513 154.369 135.236 144.643 152.33L144.253 152.164C148.27 139.259 145.379 127.101 143.441 122.652L143.786 122.417C144.703 123.295 145.496 124.827 146.172 126.597C146.85 128.375 147.421 130.423 147.881 132.36C148.34 134.298 148.69 136.13 148.924 137.476C149.041 138.15 149.129 138.702 149.189 139.087C149.19 139.093 149.19 139.099 149.191 139.105C149.275 138.97 149.375 138.808 149.491 138.621C149.886 137.985 150.463 137.06 151.192 135.909C152.65 133.606 154.715 130.396 157.144 126.769C162 119.515 168.316 110.581 174.144 103.881C186.923 89.1871 192.621 83.6257 195.13 81.7407C195.756 81.2702 196.201 81.015 196.519 80.91C196.678 80.8573 196.825 80.836 196.954 80.8595C197.094 80.8847 197.199 80.9598 197.265 81.0663C197.325 81.1642 197.343 81.2742 197.346 81.366C197.348 81.46 197.336 81.5535 197.321 81.6324C197.305 81.7123 197.285 81.7835 197.269 81.8343C197.26 81.86 197.253 81.8809 197.248 81.8958L197.241 81.9136L197.239 81.9188L197.239 81.921ZM149.066 139.717C148.854 139.746 148.854 139.746 148.854 139.746L148.854 139.743L148.853 139.736L148.848 139.707L148.832 139.592C148.817 139.49 148.795 139.341 148.766 139.15C148.707 138.768 148.619 138.218 148.502 137.548C148.269 136.207 147.921 134.384 147.464 132.456C147.007 130.528 146.441 128.5 145.771 126.746C145.336 125.606 144.862 124.594 144.352 123.803C146.157 128.841 148.164 139.295 145.161 150.557C154.538 134.088 163.225 119.054 169.154 111.833C171.599 108.853 178.535 101.317 184.852 94.5328C188.012 91.139 191.02 87.931 193.237 85.5715C194.346 84.3918 195.257 83.4241 195.892 82.7514C196.209 82.415 196.456 82.1524 196.625 81.9739L196.852 81.733C196.855 81.7256 196.857 81.7172 196.86 81.7079C196.873 81.6674 196.889 81.6121 196.901 81.5519C196.913 81.4908 196.92 81.4307 196.918 81.3788C196.916 81.3248 196.906 81.2968 196.899 81.2859C196.899 81.2856 196.899 81.2862 196.899 81.2859C196.898 81.2834 196.895 81.2786 196.877 81.2752C196.846 81.2697 196.779 81.2699 196.655 81.3109C196.406 81.3931 196.006 81.6131 195.389 82.0772C192.922 83.9303 187.254 89.4557 174.468 104.156C168.659 110.836 162.355 119.751 157.501 127.002C155.074 130.626 153.011 133.832 151.555 136.133C150.826 137.283 150.25 138.206 149.856 138.842C149.658 139.16 149.507 139.406 149.404 139.573L149.288 139.762L149.25 139.825C149.25 139.825 149.249 139.826 149.066 139.717ZM149.066 139.717L149.249 139.826L148.936 140.34L148.854 139.746L149.066 139.717ZM197.039 81.845L197.195 81.9895L197.223 81.9594L197.239 81.921L197.039 81.845Z" fill="#008545"/>
<path fill-rule="evenodd" clip-rule="evenodd" d="M156.524 16.1352C155.46 15.0728 154.057 14.2728 152.289 13.7532L152.282 13.7512C147.669 12.4359 143.699 14.2739 140.402 17.6356C137.127 20.9748 134.4 25.9186 132.138 31.1703C129.87 36.4383 128.036 42.0975 126.584 46.9253C126.075 48.6163 125.616 50.1948 125.202 51.6177C124.423 54.2955 123.805 56.422 123.318 57.71C120.264 65.7976 111.294 96.4331 110.092 101.082C109.502 103.364 107.033 111.345 104.303 118.89C102.938 122.662 101.516 126.301 100.239 129.054C99.5986 130.433 99.0064 131.564 98.4867 132.371C98.2264 132.776 97.9987 133.076 97.8076 133.28C97.6397 133.459 97.5458 133.514 97.5273 133.525C97.523 133.527 97.5228 133.527 97.5268 133.526C96.7314 133.781 95.9083 134.283 95.1258 134.873C94.333 135.47 93.5306 136.195 92.7744 136.948C91.8647 137.854 91.0045 138.816 90.287 139.673C90.0088 138.096 89.8444 136.158 89.764 133.724C89.65 130.275 89.7056 125.891 89.8189 120.217C90.0358 109.358 87.1854 99.7588 83.4477 92.2404C79.7183 84.7389 75.0758 79.2502 71.639 76.6353C68.1907 74.0116 63.8664 72.7057 60.5874 72.9603C58.952 73.0873 57.4306 73.6175 56.4805 74.7402C55.4932 75.9068 55.2972 77.4995 55.8865 79.3414C56.9055 82.526 58.1231 90.6075 59.1192 98.8507C60.1114 107.062 60.8668 115.282 60.9836 118.676C61.0989 122.026 60.1997 130.514 59.2216 139.239C59.1013 140.312 58.9799 141.388 58.8592 142.458C58.0073 150.009 57.1937 157.219 57.0806 160.639C57.013 162.682 57.4091 165.473 58.0852 168.687C58.7647 171.919 59.7413 175.642 60.8674 179.574C62.5215 185.351 64.5088 191.615 66.3673 197.474C67.0378 199.587 67.6915 201.648 68.3068 203.614C70.3641 210.187 72.7862 218.11 74.5206 233.598C74.7225 235.401 74.3709 239.099 73.5411 244.319C72.7184 249.493 71.4465 256.049 69.8682 263.492C66.7121 278.375 62.3391 296.77 57.9098 314.686C53.4808 332.6 48.9971 350.029 45.6206 362.98C43.9324 369.455 42.521 374.811 41.5317 378.547C41.0371 380.415 40.648 381.879 40.3825 382.875C40.2498 383.373 40.148 383.755 40.0794 384.012L39.9759 384.399C39.9759 384.399 39.9755 384.4 40.8654 384.633C41.7554 384.866 41.7558 384.864 41.7558 384.864L41.8597 384.476C41.9284 384.219 42.0303 383.837 42.1631 383.338C42.4287 382.341 42.8181 380.877 43.313 379.007C44.3028 375.269 45.7147 369.911 47.4036 363.434C50.7813 350.478 55.267 333.041 59.6984 315.117C64.1294 297.195 68.5079 278.778 71.6703 263.865C73.2512 256.409 74.5303 249.82 75.36 244.601C76.1824 239.428 76.5843 235.485 76.3506 233.398C74.5994 217.76 72.1446 209.719 70.0658 203.077C69.446 201.096 68.7894 199.026 68.1171 196.907C66.2608 191.056 64.2855 184.829 62.639 179.079C61.5183 175.165 60.5548 171.488 59.8879 168.317C59.2174 165.129 58.8607 162.514 58.9208 160.699C59.0313 157.357 59.835 150.231 60.6899 142.653C60.81 141.587 60.9312 140.513 61.0516 139.439C62.0203 130.799 62.9449 122.133 62.8237 118.614C62.7041 115.138 61.9404 106.853 60.9474 98.6351C59.9582 90.4485 58.7244 82.1758 57.6421 78.7931C57.1808 77.3514 57.4241 76.4611 57.893 75.9071C58.399 75.3091 59.3506 74.881 60.7316 74.7738C63.4856 74.56 67.3685 75.6821 70.5156 78.0766C73.6744 80.48 78.1559 85.7223 81.7951 93.0424C85.4258 100.346 88.1882 109.659 87.9781 120.181C87.8649 125.849 87.808 130.279 87.9238 133.784C88.0394 137.281 88.3278 139.92 88.9316 141.986C89.4723 143.837 90.2699 145.243 91.4258 146.402C92.5676 147.546 94.0131 148.402 95.7669 149.224L96.5556 147.58C94.8794 146.795 93.6578 146.047 92.7372 145.125C91.9136 144.299 91.2936 143.295 90.8344 141.911C91.6213 140.899 92.8038 139.501 94.0812 138.23C94.8006 137.514 95.538 136.85 96.242 136.319C96.9564 135.781 97.5871 135.419 98.0953 135.256C98.5236 135.119 98.8791 134.814 99.1581 134.516C99.4533 134.202 99.7482 133.802 100.04 133.348C100.626 132.438 101.258 131.221 101.912 129.812C103.223 126.988 104.666 123.291 106.037 119.503C108.778 111.928 111.266 103.889 111.876 101.533C113.072 96.9043 122.023 66.3426 125.043 58.346C125.555 56.9924 126.208 54.7466 127.006 52.0049C127.415 50.5973 127.863 49.059 128.349 47.4436C129.795 42.6359 131.605 37.0548 133.832 31.8825C136.067 26.6941 138.688 21.9976 141.724 18.9014C144.738 15.8287 148.038 14.436 151.768 15.4979C153.663 16.0553 154.937 16.9433 155.781 18.0653C157.461 20.2991 157.635 23.7399 156.826 28.2177C156.095 32.2687 154.609 36.926 153.028 41.881C152.877 42.353 152.726 42.8276 152.574 43.3047C150.391 50.1697 146.358 63.8609 143.306 76.0213C141.781 82.0981 140.496 87.8154 139.81 92.114C139.469 94.257 139.269 96.0865 139.274 97.4451C139.276 98.1189 139.328 98.7306 139.463 99.2248C139.586 99.6742 139.849 100.284 140.479 100.543L141.186 98.8638C141.266 98.8967 141.304 98.9367 141.315 98.9504C141.305 98.9347 141.275 98.8788 141.24 98.7503C141.166 98.4797 141.117 98.0504 141.115 97.4393C141.111 96.2281 141.292 94.5128 141.629 92.3971C142.302 88.1781 143.572 82.5222 145.094 76.4591C148.135 64.3398 152.157 50.6847 154.33 43.85C154.484 43.3675 154.638 42.8859 154.791 42.4058C156.362 37.4837 157.885 32.7111 158.639 28.5373C159.403 24.3061 159.431 20.4322 157.673 17.5867C158.557 16.6214 159.936 15.44 161.598 14.5969C163.553 13.6049 165.817 13.1194 168.124 13.8857C171.215 14.9122 173.073 16.4974 174.075 18.5389C175.093 20.6133 175.294 23.2952 174.774 26.6299C174.673 27.2764 174.476 28.4924 174.203 30.173L174.096 30.8292C172.743 39.1503 169.827 57.0785 167.483 73.6125C166.28 82.1024 165.225 90.2358 164.611 96.5162C164.304 99.6545 164.105 102.346 164.053 104.393C164.028 105.416 164.039 106.296 164.094 106.999C164.147 107.659 164.246 108.3 164.48 108.744L166.114 107.906C166.069 107.821 165.982 107.515 165.93 106.857C165.881 106.242 165.869 105.431 165.894 104.438C165.944 102.455 166.138 99.8138 166.443 96.6913C167.054 90.4502 168.104 82.3474 169.307 73.8649C171.648 57.3488 174.561 39.4351 175.915 31.1143L175.935 30.9864C178.376 30.1542 181.701 29.8528 184.425 31.294C187.251 32.7887 189.754 36.3422 189.708 44.1015C189.654 53.1516 188.627 64.6227 187.469 74.5991C186.61 82.0047 185.681 88.5687 185.031 92.6788C183.381 94.3219 181.686 95.9973 179.941 97.6844C173.842 103.58 166.502 113.86 159.831 124.249C154.707 132.229 149.949 140.318 146.413 146.625C146.473 146.191 146.53 145.746 146.584 145.29C147.685 135.938 147.258 128.724 144.885 123.288C142.486 117.792 138.149 114.228 131.727 112.091C130.024 111.524 128.432 111.45 126.961 111.818C125.494 112.184 124.207 112.973 123.081 114.04C120.852 116.153 119.177 119.429 117.877 123.034C115.711 129.041 114.472 136.307 113.588 141.493C113.409 142.541 113.245 143.503 113.091 144.353C112.18 149.372 109.283 157.543 106.175 165.073C104.627 168.827 103.036 172.399 101.63 175.31C100.213 178.243 99.013 180.446 98.2466 181.506C97.4643 182.587 96.9654 183.088 96.5533 183.478C96.5023 183.526 96.4513 183.574 96.4002 183.622C96.0176 183.981 95.628 184.346 95.1661 185.004C94.1741 186.417 92.8023 189.242 89.5355 197.094C86.1881 205.141 84.4918 219.682 83.742 232.7C83.3656 239.235 83.2258 245.43 83.2424 250.301C83.2589 255.127 83.428 258.754 83.6973 260.082C84.6907 264.979 88.8118 286.455 89.8583 296.338C89.9519 297.221 89.8698 298.849 89.6109 301.149C89.355 303.423 88.9359 306.281 88.3882 309.581C87.2929 316.181 85.6893 324.517 83.8676 333.431C80.2245 351.255 75.7155 371.358 72.6743 384.429L74.4687 384.837C77.5122 371.755 82.0251 351.636 85.6724 333.791C87.4958 324.869 89.1045 316.508 90.2051 309.876C90.7553 306.56 91.18 303.668 91.4408 301.35C91.6986 299.059 91.8062 297.251 91.6895 296.148C90.6325 286.167 86.4933 264.608 85.5026 259.724C85.2758 258.606 85.1002 255.174 85.0836 250.295C85.0671 245.46 85.206 239.301 85.5803 232.803C86.3318 219.755 88.0251 205.51 91.2385 197.786C94.5325 189.868 95.8263 187.255 96.679 186.04C97.029 185.542 97.2924 185.294 97.6648 184.945C97.7168 184.896 97.7708 184.845 97.8276 184.791C98.3117 184.333 98.888 183.747 99.7443 182.564C100.616 181.358 101.878 179.02 103.291 176.093C104.715 173.145 106.321 169.541 107.88 165.76C110.99 158.224 113.955 149.898 114.903 144.674C115.063 143.793 115.232 142.806 115.414 141.741C116.3 136.545 117.506 129.483 119.612 123.644C120.882 120.122 122.44 117.169 124.356 115.353C125.303 114.455 126.317 113.855 127.412 113.582C128.501 113.31 129.73 113.346 131.139 113.815C137.165 115.82 141.041 119.074 143.195 124.009C145.376 129.005 145.843 135.835 144.755 145.08C144.436 147.785 143.999 150.067 143.469 152.029C141.946 157.664 139.636 160.723 136.999 163.624C136.535 164.134 136.058 164.642 135.571 165.16C133.271 167.61 130.754 170.291 128.425 174.487C123.192 183.911 121.103 192.808 120.71 196.149L122.539 196.359C122.905 193.247 124.923 184.577 130.039 175.362C132.25 171.378 134.598 168.876 136.887 166.435C137.384 165.905 137.879 165.378 138.369 164.839C141.115 161.818 143.599 158.533 145.22 152.599C148.749 146.045 154.761 135.541 161.385 125.224C168.054 114.838 175.296 104.719 181.229 98.9847C183.783 96.515 186.205 94.0965 188.525 91.7792C193.081 87.2286 197.246 83.0685 201.263 79.6785C207.275 74.6062 212.742 71.4556 218.376 71.3302C221.11 72.1088 222.377 72.7508 223.072 73.3813C223.712 73.9618 223.931 74.5761 224.333 75.7007C224.355 75.7621 224.377 75.8249 224.4 75.8894C224.474 76.0955 224.554 76.3148 224.644 76.5458C224.643 76.5688 224.64 76.6441 224.602 76.7931C224.541 77.0347 224.415 77.3663 224.21 77.7936C223.803 78.6448 223.142 79.7564 222.271 81.0818C220.533 83.7265 218.033 87.115 215.266 90.7753C214.087 92.3343 212.86 93.9429 211.625 95.5619C207.087 101.51 202.442 107.599 199.712 111.886C196.24 117.339 191.228 126.512 186.62 135.907C182.018 145.292 177.785 154.969 175.901 161.419L177.67 161.923C179.507 155.633 183.681 146.073 188.277 136.7C192.869 127.336 197.849 118.228 201.27 112.855C203.954 108.64 208.529 102.643 213.06 96.7041C214.304 95.0736 215.544 93.4475 216.741 91.8638C219.507 88.2045 222.041 84.7728 223.815 82.0724C224.7 80.7252 225.414 79.5331 225.875 78.5713C226.104 78.0921 226.285 77.6399 226.388 77.2357C226.482 76.864 226.552 76.3808 226.378 75.934C226.361 75.8914 226.345 75.849 226.329 75.807C229.788 72.2893 234.966 68.226 239.791 66.8004C242.277 66.0659 244.555 66.0636 246.454 67.0615C248.273 68.0173 249.922 69.9842 251.054 73.5612C248.516 76.6455 245.692 80.275 242.72 84.2466C237.129 91.7199 231.007 100.417 225.279 108.998C220.782 115.733 214.228 129.613 208.742 142.779C205.994 149.374 203.503 155.815 201.662 161.127C200.741 163.782 199.981 166.163 199.431 168.144C198.886 170.108 198.532 171.733 198.454 172.854C197.986 179.549 199.434 186.724 200.221 189.499L201.994 189.008C201.242 186.355 199.842 179.399 200.291 172.98C200.356 172.051 200.666 170.574 201.207 168.625C201.743 166.693 202.491 164.351 203.404 161.716C205.23 156.448 207.706 150.042 210.444 143.471C215.931 130.304 222.428 116.572 226.816 109.999C232.428 101.592 238.418 93.0749 243.908 85.7193C245.905 85.8597 248.391 86.5797 250.012 88.2285C251.675 89.9207 252.636 92.8138 250.703 97.7749C248.42 103.634 243.751 113.353 239.038 123.164C237.3 126.783 235.556 130.414 233.923 133.869C230.25 141.64 227.123 148.556 225.973 152.317C224.516 157.083 223.103 162.8 221.879 167.756L221.782 168.15C221.157 170.679 220.584 172.992 220.078 174.871C219.567 176.772 219.142 178.162 218.82 178.885C218.719 179.113 218.578 179.412 218.405 179.777C216.207 184.432 208.911 199.88 213.352 217.704L215.14 217.269C210.863 200.106 217.877 185.213 220.081 180.534C220.255 180.163 220.4 179.856 220.506 179.617C220.895 178.744 221.352 177.217 221.858 175.338C222.369 173.438 222.947 171.106 223.57 168.582L223.663 168.209C224.891 163.237 226.293 157.56 227.735 152.843C228.817 149.307 231.777 142.722 235.37 135.107C237.102 134.988 239.255 135.358 240.753 136.701C242.327 138.112 243.442 140.847 242.118 146.084C240.673 151.803 237.542 160.64 234.05 170.496C233.437 172.224 232.814 173.984 232.186 175.763C227.996 187.651 223.64 200.4 221.339 210.459C219.871 216.872 218.974 222.285 218.192 227.001C217.756 229.632 217.356 232.046 216.912 234.296C215.666 240.622 214.053 245.862 210.31 251.616C206.444 257.559 199.266 271.212 192.487 286.033C185.711 300.846 179.28 316.939 176.951 327.751C172.328 349.218 170.537 354.48 167.094 359.175C164.118 363.233 160.887 369.799 158.37 384.481L160.185 384.785C162.674 370.265 165.832 363.996 168.585 360.243C172.301 355.175 174.151 349.495 178.752 328.13C181.036 317.526 187.392 301.588 194.165 286.782C200.934 271.983 208.067 258.428 211.859 252.6C215.773 246.583 217.448 241.099 218.72 234.643C219.183 232.289 219.59 229.833 220.029 227.182C220.801 222.515 221.674 217.243 223.135 210.86C225.409 200.918 229.729 188.264 233.925 176.362C234.549 174.592 235.17 172.839 235.782 171.114C239.269 161.27 242.436 152.333 243.905 146.525C245.321 140.922 244.254 137.383 241.99 135.353C240.307 133.845 238.114 133.315 236.239 133.271C237.663 130.27 239.164 127.146 240.664 124.022C245.39 114.185 250.111 104.357 252.421 98.4284C254.532 93.0103 253.635 89.303 251.333 86.9611C249.615 85.2137 247.237 84.3582 245.173 84.0343C247.895 80.426 250.471 77.14 252.789 74.3371L253.095 73.9674L252.96 73.5086C251.744 69.3583 249.801 66.7597 247.319 65.4554C244.842 64.1538 242.02 64.243 239.264 65.0575C234.293 66.5261 229.168 70.4553 225.626 73.9231C225.339 73.2631 224.96 72.6245 224.318 72.0415C223.272 71.0923 221.608 70.3486 218.75 69.5436L218.62 69.507L218.485 69.5089C212.126 69.5961 206.195 73.1252 200.068 78.2952C199.214 79.0153 198.353 79.7712 197.482 80.5584C195.26 75.4113 191.815 73.815 189.424 73.7195C190.532 63.9817 191.497 52.9324 191.549 44.1121C191.598 35.9776 188.948 31.6235 185.295 29.6903C182.321 28.1173 178.904 28.2733 176.261 28.9853C176.411 28.0548 176.525 27.35 176.594 26.9069C177.142 23.3931 176.979 20.2884 175.732 17.7454C174.468 15.1695 172.159 13.3065 168.711 12.1614C165.787 11.1904 162.996 11.8427 160.756 12.9787C159.004 13.868 157.538 15.0771 156.524 16.1352ZM189.213 75.537C188.532 81.3332 187.815 86.5769 187.23 90.4846C190.301 87.4181 193.222 84.5029 196.038 81.8828C194.006 76.6376 190.86 75.5539 189.213 75.537Z" fill="#008545"/>
<path fill-rule="evenodd" clip-rule="evenodd" d="M243.142 69.267C246.43 69.2775 247.853 69.5207 248.65 69.8692C249.039 70.0395 249.29 70.2401 249.555 70.4857C249.611 70.5374 249.669 70.5924 249.729 70.6501C249.956 70.8658 250.221 71.1194 250.575 71.3767L251.083 70.6961C250.779 70.4752 250.564 70.2704 250.343 70.0599C250.277 69.997 250.21 69.9335 250.14 69.8689C249.839 69.5895 249.508 69.3198 248.996 69.0961C248.004 68.662 246.38 68.4244 242.986 68.4213L242.83 68.4211L242.711 68.5202C238.926 71.6584 237.22 75.6315 236.611 79.109C236.306 80.847 236.274 82.4657 236.393 83.8029C236.511 85.1303 236.782 86.2115 237.106 86.86C237.407 87.4622 237.906 87.7618 238.488 87.8166C239.035 87.8682 239.629 87.7028 240.186 87.4592C241.307 86.969 242.467 86.0756 243.192 85.4099L242.61 84.7907C241.919 85.4253 240.838 86.2495 239.84 86.6862C239.337 86.9061 238.902 87.0064 238.569 86.975C238.27 86.9469 238.037 86.8149 237.873 86.4858C237.615 85.9701 237.359 85.0059 237.245 83.7287C237.132 82.4613 237.162 80.9162 237.454 79.2534C238.03 75.9658 239.626 72.2353 243.142 69.267ZM215.974 75.6792C214.688 77.9822 213.734 80.6628 213.469 82.3779C213.274 83.6422 213.769 84.7517 214.514 85.6495C215.262 86.5509 216.233 87.2015 216.888 87.5183L216.512 88.2777C215.767 87.9172 214.691 87.1964 213.852 86.1855C213.011 85.1711 212.379 83.8273 212.623 82.2503C212.907 80.4138 213.902 77.6382 215.224 75.2708C215.887 74.0848 216.641 72.9823 217.445 72.1442C218.24 71.3154 219.132 70.6948 220.073 70.574L220.183 71.4123C219.533 71.4958 218.812 71.9485 218.066 72.7258C217.329 73.4938 216.615 74.53 215.974 75.6792ZM243.59 87.6922C242.95 88.954 242.025 91.0147 241.238 93.2814C240.414 95.654 239.753 98.2162 239.709 100.314C239.655 102.874 240.797 104.678 242.083 105.85C242.728 106.439 243.408 106.865 243.984 107.143C244.272 107.282 244.531 107.381 244.742 107.445C244.903 107.494 245.023 107.517 245.102 107.526C245.146 107.489 245.208 107.425 245.288 107.326C245.46 107.116 245.675 106.798 245.927 106.388C246.428 105.569 247.042 104.429 247.691 103.152C248.989 100.602 250.412 97.5385 251.326 95.4959L251.337 95.4725L251.35 95.4505C252.01 94.3564 252.902 91.5371 251.252 89.0437C250.472 87.8638 249.064 87.3639 247.518 87.2567C246.066 87.156 244.575 87.4099 243.59 87.6922ZM247.577 86.4133C249.239 86.5285 250.974 87.0783 251.968 88.5811C253.857 91.4357 252.845 94.6048 252.099 95.8606C251.181 97.9105 249.757 100.974 248.456 103.532C247.803 104.815 247.177 105.978 246.659 106.825C246.401 107.247 246.162 107.602 245.955 107.857C245.852 107.983 245.746 108.098 245.64 108.185C245.551 108.258 245.388 108.374 245.179 108.376C244.984 108.378 244.744 108.33 244.492 108.253C244.232 108.175 243.932 108.058 243.609 107.903C242.965 107.592 242.215 107.12 241.503 106.471C240.075 105.17 238.793 103.145 238.854 100.296C238.901 98.0664 239.596 95.4054 240.429 93.0069C241.264 90.6015 242.252 88.4238 242.909 87.1479L242.991 86.9892L243.163 86.9362C244.218 86.611 245.909 86.2976 247.577 86.4133ZM133.789 115.668C137.054 116.78 139.917 118.536 141.565 119.823L141.737 119.957L141.727 120.174C141.642 122.01 141.364 124.986 140.803 127.966C140.244 130.929 139.394 133.961 138.137 135.86C134.933 140.696 128.207 140.772 122.878 137.397C121.681 136.639 121.04 135.208 120.737 133.518C120.432 131.816 120.453 129.761 120.664 127.628C121.085 123.357 122.275 118.68 123.242 115.674L123.303 115.486L123.488 115.411C126.808 114.069 130.531 114.558 133.789 115.668ZM123.996 116.121C123.052 119.095 121.92 123.606 121.515 127.71C121.308 129.808 121.294 131.777 121.579 133.371C121.868 134.978 122.445 136.118 123.34 136.685C128.468 139.933 134.585 139.678 137.421 135.397C138.578 133.65 139.405 130.764 139.961 127.811C140.493 124.99 140.767 122.169 140.861 120.353C139.253 119.13 136.56 117.505 133.511 116.467C130.408 115.41 126.998 114.98 123.996 116.121ZM240.502 137.377C239.6 137.056 238.52 137.042 237.303 137.391C236.81 137.533 236.284 137.996 235.77 138.78C235.264 139.551 234.811 140.57 234.436 141.707C233.686 143.985 233.278 146.662 233.365 148.614C233.447 150.444 234.411 151.414 235.504 151.966C236.567 152.501 237.741 152.633 238.366 152.704C238.379 152.705 238.391 152.706 238.404 152.708C238.431 152.688 238.474 152.652 238.531 152.591C238.669 152.443 238.841 152.206 239.041 151.884C239.436 151.245 239.9 150.336 240.38 149.307C241.338 147.252 242.34 144.764 242.97 143.099L242.974 143.091L242.977 143.082C243.243 142.464 243.574 140.801 242.706 139.292C242.154 138.333 241.399 137.697 240.502 137.377ZM240.792 136.582C241.901 136.977 242.808 137.759 243.45 138.874C244.486 140.675 244.102 142.622 243.769 143.404C243.134 145.08 242.126 147.584 241.157 149.661C240.673 150.699 240.193 151.643 239.77 152.325C239.561 152.664 239.355 152.956 239.159 153.165C239.062 153.269 238.954 153.366 238.837 153.438C238.724 153.507 238.56 153.577 238.368 153.555C238.335 153.551 238.298 153.547 238.259 153.543C237.635 153.473 236.322 153.327 235.115 152.719C233.804 152.057 232.608 150.843 232.51 148.651C232.418 146.58 232.847 143.802 233.623 141.446C234.011 140.267 234.492 139.174 235.052 138.321C235.603 137.48 236.273 136.806 237.064 136.579C238.417 136.191 239.687 136.188 240.792 136.582Z" fill="#008545"/>
</svg>
