<svg width="72" height="46" viewBox="0 0 72 46" fill="none" xmlns="http://www.w3.org/2000/svg">
<path d="M0 4.5C0 2.29086 1.79086 0.5 4 0.5H64.25C68.5302 0.5 72 3.96979 72 8.25V37.75C72 42.0302 68.5302 45.5 64.25 45.5H4C1.79086 45.5 0 43.7091 0 41.5V4.5Z" fill="#008545"/>
<path d="M46.4808 20.865C47.3199 20.865 48.0002 21.5453 48.0002 22.3844V23.6096C48.0002 24.4487 47.3199 25.129 46.4808 25.129H25.0633C24.2242 25.129 23.5439 24.4487 23.5439 23.6096V22.3844C23.5439 21.5453 24.2242 20.865 25.0633 20.865H46.4808ZM36.5317 10.4503C37.3708 10.4503 38.051 11.1305 38.051 11.9696V34.9065C38.051 35.7456 37.3708 36.4259 36.5317 36.4259H35.0369C34.1978 36.4259 33.5176 35.7456 33.5176 34.9065V11.9696C33.5176 11.1305 34.1978 10.4503 35.0369 10.4503H36.5317Z" fill="white"/>
</svg>
