<svg width="72" height="46" viewBox="0 0 72 46" fill="none" xmlns="http://www.w3.org/2000/svg">
<g id="Minus button">
<path id="Rectangle 4" d="M0 8.25C0 3.96979 3.46979 0.5 7.75 0.5H68C70.2091 0.5 72 2.29086 72 4.5V41.5C72 43.7091 70.2091 45.5 68 45.5H7.75C3.46979 45.5 0 42.0302 0 37.75V8.25Z" fill="#008545"/>
<path id="-" d="M46.275 20.5C47.5591 20.5 48.6 21.5409 48.6 22.825V23.5073C48.6 24.7913 47.5591 25.8323 46.275 25.8323H25.325C24.0409 25.8323 23 24.7913 23 23.5073V22.825C23 21.5409 24.0409 20.5 25.325 20.5H46.275Z" fill="white"/>
</g>
</svg>
